<svg xmlns="http://www.w3.org/2000/svg" width="18" height="18" viewBox="0 0 48 48">
  <path fill="#FFC107" d="M43.611 20.083H42V20H24v8h11.303C33.732 31.91 29.329 35 24 35c-7.18 0-13-5.82-13-13s5.82-13 13-13c3.315 0 6.332 1.243 8.627 3.273l5.657-5.657C34.676 3.045 29.614 1 24 1 10.745 1 0 11.745 0 25s10.745 24 24 24 24-10.745 24-24c0-1.612-.165-3.186-.389-4.917z"/>
  <path fill="#FF3D00" d="M6.306 14.691l6.571 4.817C14.644 16.221 18.926 13 24 13c3.315 0 6.332 1.243 8.627 3.273l5.657-5.657C34.676 3.045 29.614 1 24 1 15.316 1 7.9 5.479 3.691 12.19l2.615 2.501z"/>
  <path fill="#4CAF50" d="M24 49c5.239 0 10.026-1.997 13.66-5.262l-6.293-5.311C29.135 39.551 26.718 40 24 40c-5.295 0-9.789-3.39-11.412-8.106l-6.54 5.037C9.19 44.521 16.035 49 24 49z"/>
  <path fill="#1976D2" d="M43.611 20.083H42V20H24v8h11.303A12.02 12.02 0 0 1 24 35c-5.295 0-9.789-3.39-11.412-8.106l-6.54 5.037C9.19 44.521 16.035 49 24 49c13.255 0 24-10.745 24-24 0-1.612-.165-3.186-.389-4.917z"/>
</svg>
